<svg width="58" height="58" viewBox="0 0 58 58" fill="none" xmlns="http://www.w3.org/2000/svg">
<g filter="url(#filter0_d_205_1855)">
<rect x="4" width="50" height="50" rx="20" fill="#FAB81A"/>
</g>
<path d="M29 20.0003V26.667M29 33.3337H29.0167M26.15 11.4337L12.0334 35.0003C11.7423 35.5044 11.5883 36.0758 11.5867 36.6579C11.5851 37.2399 11.7359 37.8122 12.0241 38.3179C12.3123 38.8235 12.7279 39.2449 13.2295 39.5401C13.7312 39.8353 14.3014 39.9939 14.8834 40.0003H43.1167C43.6987 39.9939 44.2689 39.8353 44.7705 39.5401C45.2722 39.2449 45.6878 38.8235 45.976 38.3179C46.2642 37.8122 46.415 37.2399 46.4134 36.6579C46.4118 36.0758 46.2578 35.5044 45.9667 35.0003L31.85 11.4337C31.5529 10.9439 31.1346 10.5389 30.6354 10.2578C30.1361 9.97675 29.5729 9.8291 29 9.8291C28.4271 9.8291 27.8639 9.97675 27.3647 10.2578C26.8655 10.5389 26.4472 10.9439 26.15 11.4337Z" stroke="black" stroke-width="4" stroke-linecap="round" stroke-linejoin="round"/>
<defs>
<filter id="filter0_d_205_1855" x="0" y="0" width="58" height="58" filterUnits="userSpaceOnUse" color-interpolation-filters="sRGB">
<feFlood flood-opacity="0" result="BackgroundImageFix"/>
<feColorMatrix in="SourceAlpha" type="matrix" values="0 0 0 0 0 0 0 0 0 0 0 0 0 0 0 0 0 0 127 0" result="hardAlpha"/>
<feOffset dy="4"/>
<feGaussianBlur stdDeviation="2"/>
<feComposite in2="hardAlpha" operator="out"/>
<feColorMatrix type="matrix" values="0 0 0 0 0 0 0 0 0 0 0 0 0 0 0 0 0 0 0.25 0"/>
<feBlend mode="normal" in2="BackgroundImageFix" result="effect1_dropShadow_205_1855"/>
<feBlend mode="normal" in="SourceGraphic" in2="effect1_dropShadow_205_1855" result="shape"/>
</filter>
</defs>
</svg>
