<svg width="50" height="50" viewBox="0 0 50 50" fill="none" xmlns="http://www.w3.org/2000/svg">
<path d="M43.832 20.3516C43.0703 19.5566 42.2832 18.7363 41.9668 17.9727C41.6738 17.2637 41.6582 16.2148 41.6406 15.1055C41.6133 13.2734 41.582 11.1992 40.1914 9.80859C38.8008 8.41797 36.7188 8.38672 34.8945 8.35938C33.7852 8.3418 32.7461 8.32617 32.0273 8.0332C31.2637 7.7168 30.4434 6.92969 29.6484 6.16797C28.3516 4.92578 26.8828 3.51562 25 3.51562C23.1172 3.51562 21.6484 4.92578 20.3516 6.16797C19.5566 6.92969 18.7363 7.7168 17.9727 8.0332C17.2637 8.32617 16.2148 8.3418 15.1055 8.35938C13.2734 8.38672 11.1992 8.41797 9.80859 9.80859C8.41797 11.1992 8.38672 13.2812 8.35938 15.1055C8.3418 16.2148 8.32617 17.2539 8.0332 17.9727C7.7168 18.7363 6.92969 19.5566 6.16797 20.3516C4.92578 21.6484 3.51562 23.1172 3.51562 25C3.51562 26.8828 4.92578 28.3516 6.16797 29.6484C6.92969 30.4434 7.7168 31.2637 8.0332 32.0273C8.32617 32.7363 8.3418 33.7852 8.35938 34.8945C8.38672 36.7266 8.41797 38.8008 9.80859 40.1914C11.1992 41.582 13.2812 41.6133 15.1055 41.6406C16.2148 41.6582 17.2539 41.6738 17.9727 41.9668C18.7363 42.2832 19.5566 43.0703 20.3516 43.832C21.6484 45.0742 23.1172 46.4844 25 46.4844C26.8828 46.4844 28.3516 45.0742 29.6484 43.832C30.4434 43.0703 31.2637 42.2832 32.0273 41.9668C32.7363 41.6738 33.7852 41.6582 34.8945 41.6406C36.7266 41.6133 38.8008 41.582 40.1914 40.1914C41.582 38.8008 41.6133 36.7266 41.6406 34.8945C41.6582 33.7852 41.6738 32.7461 41.9668 32.0273C42.2832 31.2637 43.0703 30.4434 43.832 29.6484C45.0742 28.3516 46.4844 26.8828 46.4844 25C46.4844 23.1172 45.0742 21.6484 43.832 20.3516ZM42.1406 28.0273C41.2285 28.9766 40.2852 29.9609 39.7969 31.1328C39.332 32.2539 39.3125 33.5781 39.293 34.8594C39.2715 36.3125 39.248 37.8164 38.5312 38.5352C37.8145 39.2539 36.3086 39.2754 34.8555 39.2969C33.5742 39.3164 32.25 39.3359 31.1289 39.8008C29.957 40.2852 28.9805 41.2285 28.0215 42.1445C26.9961 43.1211 25.9355 44.1445 24.9961 44.1445C24.0566 44.1445 22.9961 43.127 21.9688 42.1445C21.0195 41.2324 20.0352 40.2891 18.8633 39.8008C17.7422 39.3359 16.418 39.3164 15.1367 39.2969C13.6836 39.2754 12.1797 39.252 11.4609 38.5352C10.7422 37.8184 10.7207 36.3125 10.6992 34.8594C10.6797 33.5781 10.6602 32.2539 10.1953 31.1328C9.71094 29.9609 8.76758 28.9844 7.85156 28.0254C6.87695 27 5.85938 25.9395 5.85938 25C5.85938 24.0605 6.87695 23 7.85938 21.9727C8.77148 21.0234 9.71484 20.0391 10.2031 18.8672C10.668 17.7461 10.6875 16.4219 10.707 15.1406C10.7285 13.6875 10.752 12.1836 11.4688 11.4648C12.1855 10.7461 13.6914 10.7246 15.1445 10.7031C16.4258 10.6836 17.75 10.6641 18.8711 10.1992C20.043 9.71484 21.0195 8.77148 21.9785 7.85547C23 6.87695 24.0605 5.85938 25 5.85938C25.9395 5.85938 27 6.87695 28.0273 7.85938C28.9766 8.77148 29.9609 9.71484 31.1328 10.2031C32.2539 10.668 33.5781 10.6875 34.8594 10.707C36.3125 10.7285 37.8164 10.752 38.5352 11.4688C39.2539 12.1855 39.2754 13.6914 39.2969 15.1445C39.3164 16.4258 39.3359 17.75 39.8008 18.8711C40.2852 20.043 41.2285 21.0195 42.1445 21.9785C43.1211 23.0039 44.1445 24.0645 44.1445 25.0039C44.1445 25.9434 43.123 27 42.1406 28.0273ZM33.6406 19.4844C33.8601 19.7041 33.9833 20.002 33.9833 20.3125C33.9833 20.623 33.8601 20.9209 33.6406 21.1406L22.7031 32.0781C22.4834 32.2976 22.1855 32.4208 21.875 32.4208C21.5645 32.4208 21.2666 32.2976 21.0469 32.0781L16.3594 27.3906C16.1524 27.1685 16.0397 26.8747 16.045 26.5711C16.0504 26.2675 16.1734 25.9778 16.3881 25.7631C16.6028 25.5484 16.8925 25.4254 17.1961 25.42C17.4997 25.4147 17.7935 25.5274 18.0156 25.7344L21.875 29.5918L31.9844 19.4844C32.2041 19.2649 32.502 19.1417 32.8125 19.1417C33.123 19.1417 33.4209 19.2649 33.6406 19.4844Z" fill="#0054A6"/>
</svg>
