<svg width="258" height="258" viewBox="0 0 258 258" fill="none" xmlns="http://www.w3.org/2000/svg">
<g filter="url(#filter0_d_350_4228)">
<circle cx="129" cy="125" r="125" fill="#FF6E65"/>
</g>
<path d="M72.5352 115.205C72.2617 111.582 69.5957 109.463 64.8105 109.463C60.0938 109.463 57.7012 111.514 57.6328 114.316C57.5645 117.393 60.5723 118.896 65.0156 119.854L69.3223 120.879C78.8242 122.998 84.3613 127.715 84.4297 135.645C84.3613 145.01 77.1152 150.684 64.8105 150.684C52.5059 150.684 44.5078 145.078 44.3027 133.73H55.5137C55.7871 138.516 59.3418 140.977 64.6738 140.977C69.5957 140.977 72.5352 138.789 72.6035 135.645C72.5352 132.773 70.0059 131.27 64.5371 130.039L59.3418 128.809C50.7969 126.826 45.6016 122.588 45.6016 115.137C45.5332 105.977 53.668 99.8242 64.8789 99.8242C76.2949 99.8242 83.6094 106.045 83.7461 115.205H72.5352ZM152.516 125.254C152.516 141.592 142.262 150.684 129 150.684C115.67 150.684 105.484 141.523 105.484 125.254C105.484 108.916 115.67 99.8242 129 99.8242C142.262 99.8242 152.516 108.916 152.516 125.254ZM140.621 125.254C140.621 115.41 136.246 110.078 129 110.078C121.754 110.078 117.379 115.41 117.379 125.254C117.379 135.098 121.754 140.43 129 140.43C136.246 140.43 140.621 135.098 140.621 125.254ZM201.803 115.205C201.529 111.582 198.863 109.463 194.078 109.463C189.361 109.463 186.969 111.514 186.9 114.316C186.832 117.393 189.84 118.896 194.283 119.854L198.59 120.879C208.092 122.998 213.629 127.715 213.697 135.645C213.629 145.01 206.383 150.684 194.078 150.684C181.773 150.684 173.775 145.078 173.57 133.73H184.781C185.055 138.516 188.609 140.977 193.941 140.977C198.863 140.977 201.803 138.789 201.871 135.645C201.803 132.773 199.273 131.27 193.805 130.039L188.609 128.809C180.064 126.826 174.869 122.588 174.869 115.137C174.801 105.977 182.936 99.8242 194.146 99.8242C205.562 99.8242 212.877 106.045 213.014 115.205H201.803Z" fill="white"/>
<defs>
<filter id="filter0_d_350_4228" x="0" y="0" width="258" height="258" filterUnits="userSpaceOnUse" color-interpolation-filters="sRGB">
<feFlood flood-opacity="0" result="BackgroundImageFix"/>
<feColorMatrix in="SourceAlpha" type="matrix" values="0 0 0 0 0 0 0 0 0 0 0 0 0 0 0 0 0 0 127 0" result="hardAlpha"/>
<feOffset dy="4"/>
<feGaussianBlur stdDeviation="2"/>
<feComposite in2="hardAlpha" operator="out"/>
<feColorMatrix type="matrix" values="0 0 0 0 0 0 0 0 0 0 0 0 0 0 0 0 0 0 0.25 0"/>
<feBlend mode="normal" in2="BackgroundImageFix" result="effect1_dropShadow_350_4228"/>
<feBlend mode="normal" in="SourceGraphic" in2="effect1_dropShadow_350_4228" result="shape"/>
</filter>
</defs>
</svg>
